<svg id="Grupo_10" data-name="Grupo 10" xmlns="http://www.w3.org/2000/svg" width="15.904" height="15.868" viewBox="0 0 15.904 15.868">
  <g id="Grupo_9" data-name="Grupo 9" transform="translate(0 0)">
    <path id="Caminho_199" data-name="Caminho 199" d="M15.547,12.945l-2.456-2.456a1.281,1.281,0,0,0-1.806.034l-1.237,1.237L9.8,11.623A12.314,12.314,0,0,1,6.828,9.471,12.383,12.383,0,0,1,4.671,6.489c-.046-.083-.09-.163-.133-.239l.83-.829.408-.409a1.28,1.28,0,0,0,.033-1.806L3.353.75A1.279,1.279,0,0,0,1.547.784l-.692.7L.874,1.5A4,4,0,0,0,.3,2.505,4.171,4.171,0,0,0,.05,3.526c-.324,2.689.9,5.146,4.239,8.48,4.609,4.609,8.324,4.261,8.484,4.244a4.15,4.15,0,0,0,1.023-.257,3.989,3.989,0,0,0,1-.568l.015.013.7-.687A1.282,1.282,0,0,0,15.547,12.945Z" transform="translate(0 -0.394)" fill="#fff"/>
  </g>
</svg>
