<svg id="Grupo_4329" data-name="Grupo 4329" xmlns="http://www.w3.org/2000/svg" width="16.546" height="13" viewBox="0 0 16.546 13">
  <path id="Caminho_197" data-name="Caminho 197" d="M1.588,58.827q.314.222,1.893,1.316T5.9,61.828q.092.065.392.282t.5.351q.2.134.48.3a2.786,2.786,0,0,0,.531.249,1.463,1.463,0,0,0,.462.083h.019a1.464,1.464,0,0,0,.462-.083,2.79,2.79,0,0,0,.531-.249q.282-.166.48-.3t.5-.351q.3-.217.392-.282l4.321-3a4.386,4.386,0,0,0,1.126-1.136,2.438,2.438,0,0,0,.453-1.394,1.49,1.49,0,0,0-1.477-1.477H1.477a1.319,1.319,0,0,0-1.094.48A1.864,1.864,0,0,0,0,56.5a2.157,2.157,0,0,0,.508,1.26A4.583,4.583,0,0,0,1.588,58.827Z" transform="translate(0 -54.82)" fill="#fff"/>
  <path id="Caminho_198" data-name="Caminho 198" d="M15.622,185.24q-3.028,2.05-4.6,3.185-.526.388-.854.6a5.27,5.27,0,0,1-.873.443,2.657,2.657,0,0,1-1.015.226H8.264a2.658,2.658,0,0,1-1.016-.226,5.273,5.273,0,0,1-.873-.443q-.328-.217-.854-.6-1.247-.914-4.589-3.185a4.891,4.891,0,0,1-.933-.8v7.331a1.422,1.422,0,0,0,.434,1.043,1.422,1.422,0,0,0,1.043.434H15.068a1.482,1.482,0,0,0,1.477-1.477v-7.331A5.091,5.091,0,0,1,15.622,185.24Z" transform="translate(0 -180.245)" fill="#fff"/>
</svg>
