<?xml version="1.0" standalone="no"?>
<!DOCTYPE svg PUBLIC "-//W3C//DTD SVG 20010904//EN"
 "http://www.w3.org/TR/2001/REC-SVG-20010904/DTD/svg10.dtd">
<svg version="1.0" xmlns="http://www.w3.org/2000/svg"
 width="770.000000pt" height="689.000000pt" viewBox="0 0 770.000000 689.000000"
 preserveAspectRatio="xMidYMid meet">

<g transform="translate(0.000000,689.000000) scale(0.100000,-0.100000)"
fill="#000000" stroke="none">
<path d="M5363 6882 c-57 -1 -103 -7 -103 -12 0 -5 24 -37 53 -72 111 -132
162 -216 173 -286 l6 -39 -203 -6 c-164 -4 -228 -10 -324 -31 -195 -40 -343
-98 -504 -195 -46 -28 -89 -51 -95 -51 -6 0 -56 12 -111 26 -86 23 -122 27
-250 27 -139 1 -156 -1 -230 -27 -95 -33 -145 -61 -214 -119 -44 -38 -161
-176 -161 -190 0 -2 33 -8 73 -11 197 -20 314 -64 374 -144 44 -59 43 -76 -9
-96 -24 -9 -63 -34 -87 -56 -24 -22 -47 -39 -50 -38 -4 2 -37 37 -75 78 -236
258 -431 439 -561 523 -246 158 -612 283 -945 323 -150 18 -266 17 -420 -1
-522 -61 -967 -306 -1248 -687 -219 -297 -353 -604 -411 -938 -50 -294 -51
-413 -7 -635 32 -156 81 -297 166 -470 229 -467 580 -903 1035 -1285 77 -65
180 -160 230 -211 49 -52 151 -158 227 -235 76 -78 138 -148 138 -157 0 -8 73
-85 163 -172 173 -168 848 -828 1237 -1210 380 -373 476 -465 482 -465 4 0 44
36 90 81 174 170 3054 3036 3099 3084 353 375 525 876 506 1477 l-5 176 29 12
c43 18 122 103 157 168 30 56 95 223 89 228 -2 2 -46 -13 -97 -32 -52 -20
-120 -38 -150 -42 l-55 -5 37 44 c103 121 140 218 136 353 l-3 86 -70 -51
c-67 -49 -165 -102 -173 -94 -2 2 19 38 47 81 74 113 86 199 44 306 l-15 38
-77 -72 c-83 -78 -184 -133 -261 -144 l-46 -6 -71 88 c-153 193 -338 342 -553
449 -79 40 -89 48 -95 77 -69 329 -312 524 -690 553 -44 3 -89 7 -100 8 -11 1
-66 1 -122 -1z m282 -147 c183 -21 353 -119 429 -249 31 -54 62 -144 76 -227
l12 -66 77 -32 c95 -39 223 -114 317 -186 90 -69 234 -218 309 -319 l58 -79
91 5 c58 4 111 13 145 27 30 11 57 19 59 17 2 -3 -49 -57 -112 -122 -64 -64
-115 -118 -114 -119 2 -1 45 -12 97 -24 100 -24 156 -22 235 5 21 8 40 14 43
14 15 0 -33 -58 -109 -132 l-90 -87 31 -40 c42 -53 110 -85 183 -85 32 -1 58
-4 58 -8 0 -17 -74 -64 -122 -79 l-53 -17 1 -63 c7 -347 5 -484 -10 -601 -34
-269 -117 -513 -248 -726 -82 -134 -165 -231 -384 -447 -122 -121 -243 -247
-269 -280 -68 -86 -157 -175 -175 -175 -15 0 -134 -114 -141 -136 -7 -21 -147
-164 -160 -164 -15 0 -109 -89 -109 -103 0 -20 -96 -125 -117 -129 -14 -2
-387 -365 -983 -957 l-961 -953 -191 188 c-119 119 -192 184 -195 175 -7 -17
-113 86 -113 109 0 19 -63 83 -73 74 -11 -11 -118 89 -112 105 6 14 -31 61
-48 61 -14 0 -131 111 -137 129 -8 27 -577 581 -597 581 -10 1 -83 63 -163
140 l-145 139 0 91 c0 88 1 93 28 116 34 29 80 31 153 6 l51 -18 -14 48 c-8
26 -13 68 -11 95 2 39 7 50 30 62 22 13 36 13 80 4 29 -6 61 -14 70 -18 15 -6
16 -3 2 47 -30 113 -12 196 47 217 82 28 152 7 208 -61 73 -91 247 -262 305
-298 38 -24 55 -42 56 -56 0 -42 185 -119 356 -149 184 -33 498 -15 702 40
509 137 783 580 818 1325 l6 125 -78 45 c-43 24 -122 77 -175 116 -239 178
-407 383 -539 657 -139 288 -208 591 -226 999 -6 137 -5 157 11 181 23 35 73
66 143 86 57 17 57 17 60 59 4 59 -23 155 -58 206 -52 77 -115 119 -240 161
l-65 22 50 32 c145 92 351 99 621 20 l71 -21 41 28 c29 21 41 36 42 54 0 22 9
28 68 50 37 14 79 26 93 27 14 0 44 10 65 21 21 10 56 25 77 31 20 7 37 19 37
26 0 8 8 16 18 18 67 19 127 28 149 24 14 -2 59 0 99 6 62 8 72 12 62 24 -10
12 3 14 88 10 54 -2 143 -10 197 -17 l97 -14 30 29 c74 71 77 176 10 309 -22
43 -40 80 -40 83 0 3 12 2 28 -1 15 -2 54 -8 87 -11z m-1983 -1273 c42 -30 45
-42 22 -78 -15 -22 -16 -45 -11 -172 26 -613 241 -1146 609 -1510 l74 -73 -24
-92 c-33 -124 -37 -333 -8 -417 45 -130 128 -248 221 -311 19 -13 35 -29 35
-36 0 -25 -71 -178 -116 -251 -88 -140 -224 -257 -381 -326 -141 -61 -423
-103 -624 -93 -224 12 -415 85 -566 216 -97 83 -263 268 -263 292 0 14 -14 20
-75 30 -58 9 -75 16 -75 28 1 37 42 200 78 309 167 499 486 831 985 1028 53
21 97 44 97 50 0 6 -11 49 -24 95 -126 437 -178 711 -179 929 0 184 36 321
109 417 l25 34 27 -21 c15 -11 44 -33 64 -48z m-1280 -192 c285 -27 547 -163
684 -356 94 -131 142 -277 151 -459 l6 -101 -69 -31 c-304 -138 -641 -188
-954 -142 -152 22 -436 114 -482 156 -10 9 -18 13 -18 9 0 -8 167 -324 230
-433 95 -166 155 -354 185 -576 26 -200 17 -349 -31 -545 -48 -196 -121 -330
-236 -437 -66 -61 -192 -135 -229 -135 -16 0 -299 279 -299 295 0 5 31 22 68
37 159 65 296 186 362 321 55 114 72 182 77 328 8 184 -10 341 -53 469 -40
121 -173 395 -270 555 -93 155 -116 217 -122 340 -7 154 29 268 139 434 38 58
66 87 112 118 206 137 431 183 749 153z m-1997 -1245 c263 -421 361 -543 526
-659 l24 -16 -75 -75 -75 -74 -35 17 c-51 25 -179 156 -234 241 -63 97 -135
242 -179 361 -40 107 -157 489 -157 511 0 17 34 -33 205 -306z m4193 -565 c84
-44 113 -87 87 -127 -15 -23 -22 -25 -66 -21 -57 6 -136 51 -158 90 -12 21
-13 31 -3 52 10 22 18 26 57 26 26 0 62 -8 83 -20z"/>
<path d="M5835 5600 c-60 -95 -66 -135 -55 -340 5 -96 12 -252 15 -346 l6
-171 -88 -32 c-48 -18 -126 -51 -173 -75 l-84 -43 -161 201 c-89 110 -175 222
-193 248 -18 26 -47 59 -65 72 -47 36 -134 73 -188 81 l-46 7 -7 -36 c-8 -44
-2 -56 28 -56 28 0 87 -19 101 -33 7 -6 0 -8 -19 -4 -84 15 -214 -28 -288 -95
-40 -35 -108 -141 -108 -168 0 -9 14 -21 33 -28 45 -16 44 -17 57 23 18 53
103 140 158 162 54 21 181 23 250 4 39 -11 56 -29 209 -221 l167 -208 29 14
c27 14 29 14 47 -9 23 -29 74 -51 157 -67 l62 -12 7 -65 c23 -219 -33 -315
-202 -346 -63 -11 -69 -14 -69 -37 0 -24 3 -25 50 -22 175 11 272 103 283 270
2 39 8 72 13 72 4 0 20 -11 36 -24 99 -83 249 -106 402 -60 50 14 52 17 46 42
-4 15 -8 28 -9 30 -2 1 -23 -5 -47 -14 -28 -11 -78 -17 -139 -18 -85 -1 -101
2 -152 27 -61 30 -148 116 -148 147 0 10 10 20 24 24 37 9 68 85 74 178 4 66
8 78 24 84 17 5 19 13 14 67 -3 34 -8 162 -12 283 l-6 222 53 42 c30 24 79 55
109 69 49 23 67 26 167 26 l111 0 11 35 c6 20 7 38 2 43 -5 5 -50 12 -99 15
-109 6 -192 -16 -292 -77 -36 -21 -67 -37 -69 -35 -3 2 12 37 33 77 l37 72
-26 23 c-14 12 -30 22 -35 22 -6 0 -21 -18 -35 -40z m-49 -907 c29 -38 5 -80
-40 -69 -42 10 -44 54 -3 74 29 14 28 14 43 -5z"/>
<path d="M6410 5222 c-224 -469 -292 -614 -288 -616 1 -2 18 -11 36 -20 l32
-17 116 238 c193 394 264 545 264 558 0 11 -49 36 -69 35 -3 0 -44 -80 -91
-178z"/>
<path d="M6574 4937 c-143 -170 -299 -353 -327 -385 l-21 -23 29 -29 30 -29
165 191 c220 254 310 360 310 363 0 1 -15 14 -33 28 l-34 26 -119 -142z"/>
<path d="M6780 4565 c-328 -84 -472 -123 -477 -129 -3 -3 -2 -21 1 -42 6 -27
11 -35 24 -32 9 3 158 40 331 83 l313 78 -6 35 c-3 19 -9 38 -13 42 -4 4 -82
-12 -173 -35z"/>
<path d="M4200 4494 c-14 -37 -12 -52 8 -58 63 -19 706 -199 787 -221 55 -15
129 -35 163 -46 35 -10 68 -17 72 -14 9 6 24 64 18 70 -6 6 -212 68 -533 159
-443 125 -483 136 -495 136 -6 0 -15 -12 -20 -26z"/>
<path d="M4416 4103 c-3 -3 -6 -23 -6 -44 l0 -37 123 -6 c67 -3 249 -7 405
-10 l282 -4 0 38 0 37 -57 7 c-32 3 -202 8 -378 11 -176 4 -329 8 -341 10 -12
3 -24 2 -28 -2z"/>
<path d="M5225 3924 c-33 -14 -105 -44 -160 -66 -95 -39 -324 -146 -354 -167
-12 -7 -10 -15 8 -44 l22 -35 142 68 c78 37 207 96 287 130 80 34 147 63 148
65 6 6 -19 75 -26 75 -4 -1 -34 -12 -67 -26z"/>
<path d="M3345 3435 c-19 -19 -25 -35 -25 -70 0 -72 22 -105 72 -105 38 0 63
41 63 103 0 41 -4 53 -28 73 -35 30 -52 30 -82 -1z"/>
<path d="M3707 3280 c-65 -51 -34 -180 42 -180 58 0 85 127 36 175 -29 30 -45
31 -78 5z"/>
<path d="M3030 3220 c-56 -56 -27 -180 42 -180 34 0 68 45 68 90 0 90 -61 139
-110 90z"/>
<path d="M3411 2994 c-31 -39 -29 -117 4 -149 29 -30 45 -31 77 -5 31 24 41
70 28 121 -17 62 -73 79 -109 33z"/>
<path d="M3689 2808 c-58 -94 35 -215 104 -136 30 35 19 136 -17 160 -28 19
-66 8 -87 -24z"/>
<path d="M3065 2740 c-10 -11 -20 -41 -22 -67 -6 -59 22 -103 66 -103 43 0 66
33 66 95 0 38 -5 59 -19 74 -24 26 -67 27 -91 1z"/>
<path d="M3423 2579 c-30 -11 -43 -40 -43 -96 0 -59 26 -93 70 -93 55 0 86 87
53 149 -20 39 -48 52 -80 40z"/>
<path d="M2755 4724 c-87 -33 -269 -74 -374 -85 -133 -14 -267 -1 -375 36 -39
14 -71 23 -72 22 -9 -10 -64 -129 -64 -137 0 -15 74 -47 154 -65 157 -36 352
-36 534 1 70 14 302 81 311 90 8 8 -52 154 -63 153 -6 0 -29 -7 -51 -15z"/>
</g>
</svg>
